<svg width="548" height="100" viewBox="0 0 548 100" fill="none" xmlns="http://www.w3.org/2000/svg">
<g opacity="0.2">
<path d="M0 100L-4.37114e-06 2.28882e-05L208.69 1.3766e-05L208.69 100L0 100Z" fill="white"/>
<path d="M216.197 100L216.197 1.34379e-05L229.71 1.28473e-05L229.71 100L216.197 100Z" fill="white"/>
<path d="M240.219 100L240.219 1.23879e-05L262.74 1.14035e-05L262.74 100L240.219 100Z" fill="white"/>
<path d="M282.258 100L282.258 1.05503e-05L304.778 9.56591e-06L304.778 100L282.258 100Z" fill="white"/>
<path d="M342.312 100L342.312 7.92524e-06L355.825 7.33459e-06L355.825 100L342.312 100Z" fill="white"/>
<path d="M409.874 100L409.874 4.97202e-06L426.389 4.25013e-06L426.389 100L409.874 100Z" fill="white"/>
<path d="M531.485 100L531.485 -3.4376e-07L548 -1.06566e-06L548 100L531.485 100Z" fill="white"/>
</g>
</svg>
